

<svg id="Layer_1" data-name="Layer 1" xmlns="http://www.w3.org/2000/svg" viewBox="0 0 36 36">
  <defs>
    <style>
      .cls-1 {
        fill: #aeaeae;
      }
    </style>
  </defs>
  <path class="cls-1" d="m25.3,0H4.74c-.91,0-1.65.74-1.65,1.65v26.76c0,.91.74,1.65,1.65,1.65h20.56c.91,0,1.65-.74,1.65-1.65V1.65c0-.91-.74-1.65-1.65-1.65Zm-2.96,15.52c-.57,5.19-6.21,4.26-6.21,4.26l1.43,2.74c.29.55-.11,1.2-.73,1.2h-3.6c-.62,0-1.02-.66-.73-1.2l1.43-2.74s-5.64.93-6.21-4.26c-.13-1.19.21-2.68.91-3.5,1.75-2.04,4.68-4.6,5.87-5.63.31-.27.76-.27,1.07,0,1.2,1.03,4.12,3.59,5.87,5.63.7.81,1.04,2.31.91,3.5Z"/>
  <path class="cls-1" d="m31.26,5.94h-2.67v22.47c0,1.82-1.48,3.3-3.3,3.3H9.05v2.64c0,.91.74,1.65,1.65,1.65h20.56c.91,0,1.65-.74,1.65-1.65V7.59c0-.91-.74-1.65-1.65-1.65Z"/>
</svg>