
<svg xmlns="http://www.w3.org/2000/svg" width="16.115" height="16.07" viewBox="0 0 16.115 16.07">
  <path id="info" d="M633.007,409.973a8.066,8.066,0,0,1-8.748,8,8.525,8.525,0,0,1-2.843-.778.967.967,0,0,0-.616-.045c-.886.242-1.762.509-2.639.777a.91.91,0,0,1-1.2-1.192c.272-.886.543-1.773.79-2.669a.858.858,0,0,0-.036-.553,8.043,8.043,0,1,1,15.185-4.684C632.956,409.209,632.973,409.593,633.007,409.973Zm-8.97.031v3.451a.89.89,0,0,0,.842.967,9.146,9.146,0,0,0,1.011,0,.871.871,0,0,0,.816-.772.886.886,0,0,0-.594-.955c-.085-.03-.176-.052-.282-.081v-3.457a.85.85,0,0,0-.745-.943,5.816,5.816,0,0,0-1.215,0,.83.83,0,0,0-.717.786.88.88,0,0,0,.574.9c.1.039.194.06.31.1Zm.906-2.716a.886.886,0,1,0-.9-.874.9.9,0,0,0,.9.875Z" transform="translate(-616.892 -401.932)" fill="#fff" />
</svg>
