
<svg width="32" height="33" viewBox="0 0 32 33" fill="none" xmlns="http://www.w3.org/2000/svg">
<path d="M29.0124 5.39917H2.98712C1.46002 5.39917 0.211914 6.64178 0.211914 8.17438V24.8256C0.211914 26.3588 1.46082 27.6008 2.98712 27.6008H29.0124C30.5395 27.6008 31.7876 26.3582 31.7876 24.8256V8.17438C31.7876 6.64141 30.5389 5.39917 29.0124 5.39917ZM28.5863 7.24931C27.689 8.14952 17.1496 18.7232 16.7166 19.1577C16.355 19.5204 15.6447 19.5207 15.2829 19.1577L3.41327 7.24931H28.5863ZM2.06205 24.4855V8.51449L10.0217 16.5L2.06205 24.4855ZM3.41327 25.7507L11.3278 17.8104L13.9726 20.4638C15.0564 21.5511 16.9436 21.5507 18.027 20.4638L20.6718 17.8105L28.5863 25.7507H3.41327ZM29.9375 24.4855L21.9779 16.5L29.9375 8.51449V24.4855Z" fill="#fff"/>
</svg>
