
<svg width="26" height="26" viewBox="0 0 26 26" fill="none" xmlns="http://www.w3.org/2000/svg">
<path d="M26.0068 13.0049C25.9985 14.8067 25.6183 16.5871 24.8901 18.2343C24.1619 19.8814 23.1014 21.3594 21.7756 22.5753C20.4497 23.7912 18.8871 24.7186 17.1862 25.2991C15.4853 25.8796 13.6829 26.1007 11.8927 25.9483C10.3024 25.799 8.75033 25.3731 7.30584 24.6896C6.9914 24.557 6.64225 24.5314 6.31194 24.6168C4.88246 25.0083 3.46916 25.4403 2.0542 25.8739C1.78462 25.9916 1.48595 26.0254 1.19699 25.9709C0.908023 25.9165 0.642111 25.7763 0.433514 25.5685C0.224917 25.3607 0.0833379 25.0949 0.0271099 24.8055C-0.029118 24.5161 0.0025503 24.2164 0.1181 23.9453C0.556946 22.5118 0.994143 21.0768 1.39265 19.6271C1.47251 19.3307 1.45217 19.016 1.33465 18.7324C0.510788 17.044 0.061416 15.1966 0.0175579 13.3174C-0.0263001 11.4382 0.336394 9.5718 1.08059 7.84658C1.82478 6.12136 2.93285 4.57831 4.32857 3.32358C5.72429 2.06884 7.37444 1.13219 9.16563 0.578128C10.9568 0.0240681 12.8465 -0.134261 14.7045 0.114003C16.5626 0.362266 18.3449 1.01123 19.929 2.01628C21.513 3.02132 22.861 4.35858 23.8805 5.93601C24.8999 7.51345 25.5664 9.29363 25.8342 11.1541C25.9245 11.7689 25.952 12.3901 26.0068 13.0049ZM11.5345 13.0551V18.6385C11.5176 18.8315 11.5396 19.0259 11.5993 19.21C11.659 19.3942 11.7552 19.5644 11.882 19.7105C12.0089 19.8566 12.1638 19.9755 12.3375 20.0601C12.5112 20.1448 12.7002 20.1934 12.8931 20.2031C13.4364 20.2332 13.9809 20.2332 14.5242 20.2031C14.8554 20.1842 15.1691 20.0484 15.4101 19.8198C15.651 19.5912 15.8035 19.2846 15.8407 18.954C15.884 18.6251 15.8121 18.2912 15.6374 18.0094C15.4626 17.7277 15.1958 17.5155 14.8824 17.4089C14.7452 17.3604 14.5984 17.3248 14.4274 17.2779V11.6847C14.4697 11.3226 14.3667 10.9584 14.1413 10.6723C13.9159 10.3862 13.5865 10.2016 13.2254 10.159C12.5738 10.0904 11.9167 10.0904 11.2651 10.159C10.9543 10.2015 10.6682 10.3522 10.4568 10.5846C10.2454 10.817 10.1221 11.1164 10.1083 11.4307C10.0822 11.7417 10.1587 12.0526 10.326 12.3157C10.4934 12.5788 10.7422 12.7794 11.0344 12.8868C11.1957 12.9499 11.3474 12.9839 11.5345 13.0486V13.0551ZM12.9963 8.66082C13.2788 8.65632 13.5537 8.56797 13.7861 8.40689C14.0186 8.24581 14.1983 8.01925 14.3024 7.75583C14.4066 7.49241 14.4305 7.20393 14.3713 6.92687C14.312 6.64981 14.1721 6.39659 13.9694 6.19918C13.7667 6.00177 13.5102 5.869 13.2323 5.81771C12.9544 5.76642 12.6676 5.79893 12.4081 5.91103C12.1486 6.02313 11.928 6.20984 11.7742 6.44759C11.6205 6.68533 11.5405 6.96343 11.5443 7.24677C11.5548 7.62591 11.7124 7.98598 11.9836 8.25037C12.2548 8.51476 12.6181 8.6626 12.9963 8.66245V8.66082Z" fill="#fff"/>
</svg>
