
<svg width="25" height="21" viewBox="0 0 25 21" fill="none" xmlns="http://www.w3.org/2000/svg">
<g clip-path="url(#clip0_125_11539)">
<path d="M23.2143 20.3037H15.625C15.5066 20.3037 15.393 20.2566 15.3093 20.1729C15.2256 20.0892 15.1786 19.9756 15.1786 19.8572V18.9197C15.1786 18.4461 14.9904 17.9919 14.6555 17.6571C14.3206 17.3222 13.8664 17.134 13.3928 17.134H11.6071C11.1335 17.134 10.6793 17.3222 10.3444 17.6571C10.0096 17.9919 9.82142 18.4461 9.82142 18.9197V19.8572C9.82142 19.9159 9.80987 19.9739 9.78744 20.0281C9.765 20.0822 9.73212 20.1315 9.69066 20.1729C9.64921 20.2144 9.6 20.2473 9.54583 20.2697C9.49167 20.2921 9.43362 20.3037 9.37499 20.3037H1.78571C1.31211 20.3037 0.857909 20.4918 0.523023 20.8267C0.188137 21.1616 0 21.6158 0 22.0894L0 23.4287C0 23.9023 0.188137 24.3565 0.523023 24.6914C0.857909 25.0262 1.31211 25.2144 1.78571 25.2144H23.2143C23.6879 25.2144 24.1421 25.0262 24.477 24.6914C24.8118 24.3565 25 23.9023 25 23.4287V22.0894C25 21.6158 24.8118 21.1616 24.477 20.8267C24.1421 20.4918 23.6879 20.3037 23.2143 20.3037Z" fill="url(#paint0_linear_125_11539)"/>
<path d="M13.3516 0.750094L15.3917 4.81705C15.4617 4.95608 15.5638 5.07641 15.6896 5.16803C15.8153 5.25966 15.9612 5.31993 16.115 5.34384L20.5792 5.98223C20.7621 6.01511 20.9323 6.09783 21.0711 6.22128C21.21 6.34474 21.312 6.50412 21.366 6.68187C21.42 6.85962 21.4239 7.04884 21.3773 7.22866C21.3306 7.40848 21.2352 7.57193 21.1016 7.70098L17.923 10.7456C17.806 10.86 17.7182 11.0008 17.6669 11.1562C17.6157 11.3115 17.6024 11.4769 17.6284 11.6385L18.3873 15.9912C18.4248 16.1693 18.4114 16.3543 18.3485 16.5252C18.2857 16.696 18.176 16.8457 18.032 16.9571C17.888 17.0684 17.7156 17.137 17.5344 17.1548C17.3533 17.1727 17.1708 17.1392 17.0078 17.0581L12.9453 14.9465C12.8082 14.8723 12.6548 14.8334 12.4989 14.8334C12.343 14.8334 12.1896 14.8723 12.0525 14.9465L7.95425 17.067C7.79128 17.1481 7.60877 17.1816 7.42763 17.1638C7.24648 17.1459 7.07404 17.0774 6.93006 16.966C6.78608 16.8546 6.67638 16.7049 6.61355 16.5341C6.55071 16.3633 6.53728 16.1782 6.57479 16.0001L7.33372 11.6474C7.35963 11.4859 7.3464 11.3205 7.29513 11.1651C7.24386 11.0097 7.15605 10.8689 7.03908 10.7545L3.87836 7.70098C3.74473 7.57193 3.64932 7.40848 3.60266 7.22866C3.55599 7.04884 3.55989 6.85962 3.6139 6.68187C3.66792 6.50412 3.76997 6.34474 3.9088 6.22128C4.04762 6.09783 4.21784 6.01511 4.40069 5.98223L8.86497 5.34384C9.01874 5.31993 9.16458 5.25966 9.29037 5.16803C9.41616 5.07641 9.51826 4.95608 9.58818 4.81705L11.6462 0.750094C11.7235 0.589598 11.8445 0.454178 11.9954 0.359405C12.1462 0.264632 12.3208 0.214355 12.4989 0.214355C12.677 0.214355 12.8516 0.264632 13.0024 0.359405C13.1532 0.454178 13.2743 0.589598 13.3516 0.750094Z" fill="url(#paint1_linear_125_11539)"/>
</g>
<defs>
<linearGradient id="paint0_linear_125_11539" x1="12.5" y1="17.134" x2="12.5" y2="25.2144" gradientUnits="userSpaceOnUse">
<stop stop-color="#DDC66F"/>
<stop offset="1" stop-color="#CFB060"/>
</linearGradient>
<linearGradient id="paint1_linear_125_11539" x1="12.49" y1="0.214355" x2="12.49" y2="17.1685" gradientUnits="userSpaceOnUse">
<stop stop-color="#DDC66F"/>
<stop offset="1" stop-color="#CFB060"/>
</linearGradient>
<clipPath id="clip0_125_11539">
<rect width="25" height="21" fill="white"/>
</clipPath>
</defs>
</svg>
