
<svg width="15" height="18" viewBox="0 0 15 18" fill="none" xmlns="http://www.w3.org/2000/svg">
<path d="M9 5.25V0.345C9.68475 0.6045 10.3148 1.00425 10.8488 1.5375L13.4617 4.152C13.9957 4.68525 14.3955 5.31525 14.655 6H9.75C9.336 6 9 5.66325 9 5.25ZM14.982 7.5H9.75C8.5095 7.5 7.5 6.4905 7.5 5.25V0.018C7.37925 0.00975 7.2585 0 7.13625 0H3.75C1.68225 0 0 1.68225 0 3.75V10.5H2.97375L4.251 8.58375C4.39875 8.36175 4.6575 8.229 4.9215 8.2515C5.1885 8.268 5.42625 8.4255 5.54625 8.66475L7.218 12.009L8.001 10.8345C8.1405 10.626 8.3745 10.5008 8.625 10.5008H12C12.414 10.5008 12.75 10.8368 12.75 11.2508C12.75 11.6648 12.414 12.0007 12 12.0007H9.02625L7.749 13.917C7.6095 14.1262 7.37475 14.2507 7.125 14.2507C7.10925 14.2507 7.0935 14.2508 7.0785 14.2493C6.8115 14.2328 6.57375 14.0752 6.45375 13.836L4.782 10.4918L3.999 11.6663C3.8595 11.8748 3.6255 12 3.375 12H0V14.25C0 16.3177 1.68225 18 3.75 18H11.25C13.3177 18 15 16.3177 15 14.25V7.86375C15 7.7415 14.9902 7.62075 14.982 7.5Z" fill="white"/>
</svg>
