
<svg width="19" height="19" viewBox="0 0 19 19" fill="none" xmlns="http://www.w3.org/2000/svg">
<path d="M18.1037 8.22551L16.6947 6.81604C16.4352 6.52632 16.2822 6.15688 16.2608 5.76856V3.76518C16.2596 3.37204 16.103 2.99532 15.825 2.71729C15.5471 2.43925 15.1704 2.2825 14.7773 2.28126H12.782C12.3931 2.25898 12.0235 2.10472 11.7341 1.84395L10.3246 0.431913C10.0459 0.155251 9.66906 0 9.27632 0C8.88357 0 8.50675 0.155251 8.22798 0.431913L6.80182 1.84395C6.51437 2.10733 6.14377 2.26174 5.75435 2.2804H3.76038C3.36724 2.28176 2.99061 2.43862 2.71273 2.71673C2.43486 2.99485 2.27832 3.37161 2.27731 3.76475V5.75872C2.25546 6.1478 2.10149 6.51778 1.84086 6.80748L0.431389 8.21952C0.155038 8.49845 0 8.87521 0 9.26785C0 9.6605 0.155038 10.0373 0.431389 10.3162L1.84086 11.7218C2.101 12.0114 2.25465 12.381 2.27645 12.7697V14.7637C2.27758 15.1568 2.43423 15.5335 2.71218 15.8116C2.99013 16.0896 3.36681 16.2464 3.75995 16.2476H5.75306C6.14159 16.2695 6.51105 16.4231 6.80054 16.6832L8.20959 18.0927C8.48835 18.3693 8.86517 18.5246 9.25792 18.5246C9.65066 18.5246 10.0275 18.3693 10.3062 18.0927L11.7153 16.6832C12.0048 16.4231 12.3742 16.2695 12.7628 16.2476H14.7559C15.149 16.2464 15.5257 16.0896 15.8037 15.8116C16.0816 15.5335 16.2383 15.1568 16.2394 14.7637V12.7701C16.2612 12.3815 16.4148 12.0118 16.675 11.7222L18.084 10.3128C18.2259 10.1791 18.3393 10.0181 18.4175 9.83951C18.4956 9.66091 18.5368 9.46836 18.5387 9.27342C18.5406 9.07849 18.5031 8.88518 18.4284 8.70511C18.3537 8.52503 18.243 8.3619 18.1037 8.22551ZM5.55966 6.49127C5.55974 6.3079 5.6142 6.12867 5.71613 5.97624C5.81807 5.82381 5.96292 5.70504 6.13235 5.63492C6.30179 5.56481 6.48822 5.5465 6.66805 5.58233C6.84789 5.61816 7.01307 5.7065 7.14271 5.83619C7.27234 5.96589 7.36061 6.13111 7.39635 6.31096C7.43209 6.49082 7.41371 6.67723 7.34351 6.84664C7.27332 7.01604 7.15447 7.16083 7.002 7.2627C6.84952 7.36457 6.67027 7.41894 6.4869 7.41894C6.24094 7.41883 6.00509 7.32104 5.83121 7.14708C5.65734 6.97312 5.55966 6.73723 5.55966 6.49127ZM6.97812 12.5472C6.84761 12.6777 6.6706 12.751 6.48604 12.751C6.30148 12.751 6.12447 12.6777 5.99397 12.5472C5.86346 12.4167 5.79014 12.2397 5.79014 12.0551C5.79014 11.8706 5.86346 11.6936 5.99397 11.5631L11.5565 6.00048C11.6871 5.86998 11.8641 5.79666 12.0486 5.79666C12.2332 5.79666 12.4102 5.86998 12.5407 6.00048C12.6712 6.13099 12.7445 6.30799 12.7445 6.49256C12.7445 6.67712 12.6712 6.85412 12.5407 6.98463L6.97812 12.5472ZM12.0499 12.9828C11.8369 12.9835 11.6303 12.9104 11.4652 12.7759C11.3001 12.6414 11.1867 12.4538 11.1443 12.2451C11.102 12.0364 11.1333 11.8194 11.2329 11.6312C11.3326 11.443 11.4944 11.2951 11.6908 11.2128C11.8872 11.1304 12.1061 11.1187 12.3101 11.1796C12.5142 11.2406 12.6909 11.3703 12.81 11.5469C12.9291 11.7234 12.9834 11.9358 12.9636 12.1478C12.9437 12.3598 12.851 12.5585 12.7012 12.7098C12.5286 12.8831 12.2945 12.9813 12.0499 12.9828Z" fill="white"/>
</svg>
