
<svg width="17" height="17" viewBox="0 0 17 17" fill="none" xmlns="http://www.w3.org/2000/svg">
<path d="M10.625 12.222C10.625 11.8547 10.9423 11.5553 11.3333 11.5553C11.7243 11.5553 12.0417 11.8547 12.0417 12.222C12.0417 12.5893 11.7243 12.8887 11.3333 12.8887C10.9423 12.8887 10.625 12.5893 10.625 12.222ZM4.95833 8.22201C4.56733 8.22201 4.25 8.52134 4.25 8.88867C4.25 9.25601 4.56733 9.55534 4.95833 9.55534C5.34933 9.55534 5.66667 9.25601 5.66667 8.88867C5.66667 8.52134 5.34933 8.22201 4.95833 8.22201ZM11.3333 6.22201C11.7243 6.22201 12.0417 5.92267 12.0417 5.55534C12.0417 5.18801 11.7243 4.88867 11.3333 4.88867C10.9423 4.88867 10.625 5.18801 10.625 5.55534C10.625 5.92267 10.9423 6.22201 11.3333 6.22201ZM17 4.22201V13.5553C17 15.3933 15.4112 16.8887 13.4583 16.8887H3.54167C1.58879 16.8887 0 15.3933 0 13.5553V4.22201C0 2.38401 1.58879 0.888672 3.54167 0.888672H13.4583C15.4112 0.888672 17 2.38401 17 4.22201ZM7.05358 8.55534L9.92729 7.05267C10.302 7.36467 10.7943 7.55467 11.3333 7.55467C12.5049 7.55467 13.4583 6.65734 13.4583 5.55467C13.4583 4.45201 12.5049 3.55467 11.3333 3.55467C10.1617 3.55467 9.20833 4.45201 9.20833 5.55467C9.20833 5.66801 9.21896 5.77934 9.23808 5.88801L6.36437 7.39067C5.98967 7.07867 5.49737 6.88867 4.95833 6.88867C3.78675 6.88867 2.83333 7.78601 2.83333 8.88867C2.83333 9.99134 3.78675 10.8887 4.95833 10.8887C5.49737 10.8887 5.98967 10.6987 6.36437 10.3867L9.23808 11.8893C9.21896 11.998 9.20833 12.1087 9.20833 12.2227C9.20833 13.3253 10.1617 14.2227 11.3333 14.2227C12.5049 14.2227 13.4583 13.3253 13.4583 12.2227C13.4583 11.12 12.5049 10.2227 11.3333 10.2227C10.7943 10.2227 10.302 10.4127 9.92729 10.7247L7.05358 9.22201C7.07271 9.11334 7.08333 9.00267 7.08333 8.88867C7.08333 8.77467 7.07271 8.66401 7.05358 8.55534Z" fill="white"/>
</svg>
