
<svg width="48" height="48" viewBox="0 0 48 48" fill="none" xmlns="http://www.w3.org/2000/svg">
<g clip-path="url(#clip0_1318_18)">
<path d="M18.1667 12H14.8333C12.5367 12 10.6667 13.683 10.6667 15.75V18.75C10.6667 20.817 12.5367 22.5 14.8333 22.5H18.1667C20.4633 22.5 22.3333 20.817 22.3333 18.75V15.75C22.3333 13.683 20.4633 12 18.1667 12ZM19 18.75C19 19.164 18.6267 19.5 18.1667 19.5H14.8333C14.3733 19.5 14 19.164 14 18.75V15.75C14 15.336 14.3733 15 14.8333 15H18.1667C18.6267 15 19 15.336 19 15.75V18.75ZM29.8333 22.5H33.1667C35.4633 22.5 37.3333 20.817 37.3333 18.75V15.75C37.3333 13.683 35.4633 12 33.1667 12H29.8333C27.5367 12 25.6667 13.683 25.6667 15.75V18.75C25.6667 20.817 27.5367 22.5 29.8333 22.5ZM29 15.75C29 15.336 29.3733 15 29.8333 15H33.1667C33.6267 15 34 15.336 34 15.75V18.75C34 19.164 33.6267 19.5 33.1667 19.5H29.8333C29.3733 19.5 29 19.164 29 18.75V15.75ZM18.1667 25.5H14.8333C12.5367 25.5 10.6667 27.183 10.6667 29.25V32.25C10.6667 34.317 12.5367 36 14.8333 36H18.1667C20.4633 36 22.3333 34.317 22.3333 32.25V29.25C22.3333 27.183 20.4633 25.5 18.1667 25.5ZM19 32.25C19 32.664 18.6267 33 18.1667 33H14.8333C14.3733 33 14 32.664 14 32.25V29.25C14 28.836 14.3733 28.5 14.8333 28.5H18.1667C18.6267 28.5 19 28.836 19 29.25V32.25ZM17.3333 40.5C17.3333 41.328 16.5867 42 15.6667 42H12.3333C7.73833 42 4 38.6355 4 34.5V31.5C4 30.672 4.74667 30 5.66667 30C6.58667 30 7.33333 30.672 7.33333 31.5V34.5C7.33333 36.981 9.57667 39 12.3333 39H15.6667C16.5867 39 17.3333 39.672 17.3333 40.5ZM44 31.5V34.5C44 38.6355 40.2617 42 35.6667 42H32.3333C31.4133 42 30.6667 41.328 30.6667 40.5C30.6667 39.672 31.4133 39 32.3333 39H35.6667C38.4233 39 40.6667 36.981 40.6667 34.5V31.5C40.6667 30.672 41.4133 30 42.3333 30C43.2533 30 44 30.672 44 31.5ZM44 13.5V16.5C44 17.328 43.2533 18 42.3333 18C41.4133 18 40.6667 17.328 40.6667 16.5V13.5C40.6667 11.019 38.4233 9 35.6667 9H32.3333C31.4133 9 30.6667 8.328 30.6667 7.5C30.6667 6.672 31.4133 6 32.3333 6H35.6667C40.2617 6 44 9.3645 44 13.5ZM4 16.5V13.5C4 9.3645 7.73833 6 12.3333 6H15.6667C16.5867 6 17.3333 6.672 17.3333 7.5C17.3333 8.328 16.5867 9 15.6667 9H12.3333C9.57667 9 7.33333 11.019 7.33333 13.5V16.5C7.33333 17.328 6.58667 18 5.66667 18C4.74667 18 4 17.328 4 16.5ZM30.6667 33.75C30.6667 34.992 29.5467 36 28.1667 36C26.7867 36 25.6667 34.992 25.6667 33.75C25.6667 32.508 26.7867 31.5 28.1667 31.5C29.5467 31.5 30.6667 32.508 30.6667 33.75ZM34.8333 25.5C36.2133 25.5 37.3333 26.508 37.3333 27.75C37.3333 28.992 36.2133 30 34.8333 30C33.4533 30 32.3333 28.992 32.3333 27.75C32.3333 26.508 33.4533 25.5 34.8333 25.5ZM25.6667 27.75C25.6667 26.508 26.7867 25.5 28.1667 25.5C29.5467 25.5 30.6667 26.508 30.6667 27.75C30.6667 28.992 29.5467 30 28.1667 30C26.7867 30 25.6667 28.992 25.6667 27.75Z" fill="#292D32"/>
</g>
<defs>
<clipPath id="clip0_1318_18">
<rect width="48" height="48" fill="white"/>
</clipPath>
</defs>
</svg>
