

<svg version="1.1" id="Layer_1" xmlns="http://www.w3.org/2000/svg" xmlns:xlink="http://www.w3.org/1999/xlink" x="0px" y="0px"
	 viewBox="0 0 543.4 543.9" style="enable-background:new 0 0 543.4 543.9;" xml:space="preserve">
<style type="text/css">
	.st0{fill:#828182;}
</style>
<g>
	<path class="st0" d="M543,258c-1.2-24.3-5.6-48-13.9-70.7c-29.1-79.1-82.4-135.5-160.3-168c-30.6-12.8-62.9-19-96-19.3
		c-23.3-0.2-46.3,3.4-68.7,9.6c-51.1,14.2-94.7,41-130.7,80.1c-47.6,51.7-71.2,113-73.3,182.8c-0.7,21.9,3.1,43.4,8.8,64.4
		C25.4,397.8,59,447.4,108.7,486c48,37.3,102.7,56,166.6,57.8c10.2-1,23.6-1.7,36.8-3.7c32.2-4.8,62.3-16.4,90.5-32.3
		c39.7-22.4,71.8-53.1,96.6-91.3C530.6,368.4,545.9,315.7,543,258z M455.4,381.2c-29.8,51.9-75.1,83.6-133.3,97
		c-16.7,3.8-33.6,5.6-50.8,5.5c-51.4-0.3-97.9-15.2-137.6-48.4c-37.2-31.1-59.8-71-69.4-118.5c-3.3-16.5-5.2-33.2-4.5-50.1
		c2-49.5,16.4-94.5,48.3-133.1c30.6-37,70.5-58.8,116.9-69.2c15.4-3.5,31.1-4.1,46.9-4.3c28.6-0.4,56.2,4.1,82.5,15
		c66,27.4,107.6,76.4,123.6,145.8C491,276.9,484.2,331.1,455.4,381.2L455.4,381.2z"/>
	<path class="st0" d="M378.5,282.1c-10.4-15.5-25.6-24.4-43.1-29.3c-11.4-3.2-23-5.4-34.6-7.9c-5.6-1.2-6.6-2-6.6-7.4
		c-0.1-17.2,0-34.4,0.1-51.7c0-5.5,1.8-6.7,7.2-5.1c15,4.7,23.3,15.6,27.3,30.2c1,3.9,2.9,5.3,6.8,5.2c13.2-0.2,26.4-0.1,39.5-0.1
		c9.7,0,9.9-0.4,8.9-10c-2.9-25.7-16.5-44.9-36.4-60.1c-13.7-10.4-29.3-16.3-46.2-18.8c-6.6-1-7.4-1.9-7.4-8.2c0-9,0-18,0-27
		c0-4.7-1.1-5.9-5.6-6c-13.8,0-27.7,0-41.5,0c-4.5,0-5.5,1.1-5.6,5.6v26.2c0,7.4-0.6,8-7.9,9.4c-20.2,3.7-38.3,12-53.8,25.5
		c-23.1,20.1-31.9,45.7-26,75.6c5.4,27.5,23.6,44.3,49.4,53.2c10.1,3.5,20.6,5.7,30.9,8.3c6.3,1.6,7.3,2.8,7.3,9.4v26.6
		c0,9.7,0.1,19.3,0,29c-0.1,4.9-1.8,6-6.5,4.4c-10.5-3.6-18.6-10.2-23.5-20.1c-2.9-5.8-4.8-12.1-6.7-18.3c-1.1-3.8-3.1-5.2-7-5.2
		c-14.7,0.1-29.5,0-44.2,0.1c-4.9,0-5.9,1-5.3,5.8c1.8,14.4,6.1,28,13.8,40.3c17.1,26.9,41.4,44,72.3,51.5c6.2,1.5,7,2.4,7.1,8.7
		c0,9.3,0.1,18.5,0,27.8c-0.1,3.7,1.2,5.4,5.2,5.3c14.1,0,28.2,0.2,42.3,0.3c4.7,0,5.5-0.7,5.6-5.4c0-9.1-0.1-18.3-0.1-27.4
		c0-5.7,1.2-7.1,6.8-8c13.3-1.9,25.9-5.9,37.6-12.5c21.8-12.3,39.4-28.4,47.4-52.9C393.5,326.1,392.6,303.2,378.5,282.1L378.5,282.1
		z M241.8,227.4c-0.1,5.7-1.4,6.8-7.1,6.5c-12.9-0.7-23-9-25.6-20.9c-1.9-8.9,2.5-19.1,11.1-24.4c4.2-2.6,8.8-4.5,13.4-6.3
		c6.4-2.4,8.1-1.2,8.1,5.5c0.1,6.5,0,13,0,19.6C241.8,214.1,241.8,220.8,241.8,227.4L241.8,227.4z M330.6,344.7
		c-5.7,6.7-12.9,11.3-21.5,13.6c-2.6,0.7-5.3,1.5-7.9,2.1c-4.4,1.1-6.3-0.4-6.4-5.2c-0.1-8.2,0-16.4,0-24.7c0-7.8,0-15.7,0-23.5
		c0-5.4,1.6-6.8,6.9-6.3c11.2,1.2,21.4,4.7,28.9,13.7C337.9,323.3,338,336.1,330.6,344.7z"/>
</g>
</svg>
